<svg xmlns="http://www.w3.org/2000/svg" viewBox="0 0 200 200">
  <!-- Background -->
  <rect width="200" height="200" rx="32" fill="#0a0a0a"/>
  
  <!-- Gradient Definition -->
  <defs>
    <linearGradient id="gradient" x1="0%" y1="0%" x2="100%" y2="100%">
      <stop offset="0%" style="stop-color:#3b82f6"/>
      <stop offset="100%" style="stop-color:#22c55e"/>
    </linearGradient>
    <linearGradient id="houseGradient" x1="0%" y1="0%" x2="0%" y2="100%">
      <stop offset="0%" style="stop-color:#3b82f6;stop-opacity:0.8"/>
      <stop offset="100%" style="stop-color:#22c55e;stop-opacity:0.4"/>
    </linearGradient>
  </defs>
  
  <!-- House Icon -->
  <g transform="translate(100, 85)">
    <!-- House Body -->
    <path d="M-40,20 L-40,60 L40,60 L40,20 L0,-15 Z" fill="url(#houseGradient)" stroke="url(#gradient)" stroke-width="3"/>
    <!-- Roof -->
    <path d="M-45,20 L0,-20 L45,20" fill="none" stroke="url(#gradient)" stroke-width="4" stroke-linecap="round"/>
    <!-- Door -->
    <rect x="-12" y="35" width="24" height="25" fill="#0a0a0a" stroke="url(#gradient)" stroke-width="2"/>
    <!-- Window -->
    <rect x="-30" y="30" width="12" height="12" fill="#0a0a0a" stroke="url(#gradient)" stroke-width="2"/>
    <rect x="18" y="30" width="12" height="12" fill="#0a0a0a" stroke="url(#gradient)" stroke-width="2"/>
  </g>
  
  <!-- Chart Line -->
  <path d="M30,140 L60,130 L90,145 L120,120 L150,135 L170,125" fill="none" stroke="url(#gradient)" stroke-width="3" stroke-linecap="round" stroke-linejoin="round"/>
  
  <!-- Dots on chart -->
  <circle cx="30" cy="140" r="4" fill="#3b82f6"/>
  <circle cx="60" cy="130" r="4" fill="#3b82f6"/>
  <circle cx="90" cy="145" r="4" fill="#3b82f6"/>
  <circle cx="120" cy="120" r="4" fill="#22c55e"/>
  <circle cx="150" cy="135" r="4" fill="#22c55e"/>
  <circle cx="170" cy="125" r="4" fill="#22c55e"/>
</svg>
